<?xml version="1.0" encoding="utf-8"?>
<!-- Generator: Adobe Illustrator 20.1.0, SVG Export Plug-In . SVG Version: 6.00 Build 0)  -->
<svg version="1.1" id="Layer_1" xmlns="http://www.w3.org/2000/svg" xmlns:xlink="http://www.w3.org/1999/xlink" x="0px" y="0px"
	 viewBox="0 0 164.1 77.8" style="enable-background:new 0 0 164.1 77.8;" xml:space="preserve">
<style type="text/css">
	.st0{clip-path:url(#SVGID_2_);fill:#FFFFFF;}
</style>
<g>
	<defs>
		<path id="SVGID_1_" d="M132.3,77c11.9,0,20.9-3.8,25.7-9c2.5-2.9,5.5-7.4,3.4-10.8c-1.8-3-4.9-3.6-8.6-1.7
			c-3.7,1.9-7.8,2.9-12.4,2.9c-4.5,0-9.3-1.7-11.9-4.3c-3.1-3.2-4.8-7.2-4.8-12c0-1.2,0.7-1.3,2-0.3c3.3,2.6,8.1,3.9,14.6,3.9
			c12,0,22.6-8.2,22.6-21c0-13.4-12.4-23.4-31.2-23.4c-21.1,0-37.3,13.9-37.3,37.3C94.2,60.3,108.4,77,132.3,77z M45.3,54.1
			c2.3,0,3.5,1.3,5.1,3.8l6.8,10.8c2.5,4.2,4.7,7.1,9.6,7.1c4.9,0,7.2-2,9.6-7.7c3-6.9,6.1-15.3,8.9-26.6
			c3.1-12.6,4.5-20.4,4.5-26.7c0-6.4-2-10.1-8.8-11.4c-9.3-1.7-21.9-2.7-35.8-2.7s-26.4,1-35.8,2.7C2.8,4.7,0.8,8.4,0.8,14.8
			c0,6.4,1.4,14.2,4.5,26.7c2.8,11.3,5.9,19.7,8.9,26.6c2.4,5.6,4.7,7.7,9.6,7.7c5,0,7.1-2.9,9.6-7.1l6.8-10.8
			C41.8,55.4,43.1,54.1,45.3,54.1z"/>
	</defs>
	<use xlink:href="#SVGID_1_"  style="overflow:visible;fill:#FFFFFF;"/>
	<clipPath id="SVGID_2_">
		<use xlink:href="#SVGID_1_"  style="overflow:visible;"/>
	</clipPath>
	<rect x="-17.7" y="-17.8" class="st0" width="198.9" height="113.2"/>
</g>
</svg>
