<?xml version="1.0" encoding="utf-8"?>
<!-- Generator: Adobe Illustrator 20.1.0, SVG Export Plug-In . SVG Version: 6.00 Build 0)  -->
<svg version="1.1" id="Layer_1" xmlns="http://www.w3.org/2000/svg" xmlns:xlink="http://www.w3.org/1999/xlink" x="0px" y="0px"
	 viewBox="0 0 222.4 38.9" style="enable-background:new 0 0 222.4 38.9;" xml:space="preserve">
<style type="text/css">
	.st0{clip-path:url(#SVGID_2_);fill:#FFFFFF;}
	.st1{clip-path:url(#SVGID_4_);enable-background:new    ;}
	.st2{clip-path:url(#SVGID_6_);}
	.st3{clip-path:url(#SVGID_8_);fill:#FFFFFF;}
	.st4{clip-path:url(#SVGID_10_);}
	.st5{opacity:0.11;clip-path:url(#SVGID_12_);fill:none;stroke:#000000;stroke-width:2;stroke-miterlimit:10;}
	.st6{clip-path:url(#SVGID_14_);}
	.st7{fill:#1E2022;}
	.st8{opacity:0.11;clip-path:url(#SVGID_14_);fill:none;stroke:#000000;stroke-linecap:square;stroke-miterlimit:10;}
</style>
<g>
	<defs>
		<path id="SVGID_1_" d="M152.9-96.7c11.9,0,20.9-3.8,25.7-9c2.5-2.9,5.5-7.4,3.4-10.8c-1.8-3-4.9-3.6-8.6-1.7
			c-3.7,1.9-7.8,2.9-12.4,2.9c-4.5,0-9.3-1.7-11.9-4.3c-3.1-3.2-4.8-7.2-4.8-12c0-1.2,0.7-1.3,2-0.3c3.3,2.6,8.1,3.9,14.6,3.9
			c12,0,22.6-8.2,22.6-21c0-13.4-12.4-23.4-31.2-23.4c-21.1,0-37.3,13.9-37.3,37.3C114.8-113.3,129-96.7,152.9-96.7z M65.9-119.5
			c2.3,0,3.5,1.3,5.1,3.8l6.8,10.8c2.5,4.2,4.7,7.1,9.6,7.1c4.9,0,7.2-2,9.6-7.7c3-6.9,6.1-15.3,8.9-26.6
			c3.1-12.6,4.5-20.4,4.5-26.7c0-6.4-2-10.1-8.8-11.4c-9.3-1.7-21.9-2.7-35.8-2.7s-26.4,1-35.8,2.7c-6.8,1.3-8.8,5.1-8.8,11.4
			c0,6.4,1.4,14.2,4.5,26.7c2.8,11.3,5.9,19.7,8.9,26.6c2.4,5.6,4.7,7.7,9.6,7.7c5,0,7.1-2.9,9.6-7.1l6.8-10.8
			C62.4-118.2,63.7-119.5,65.9-119.5z"/>
	</defs>
	<use xlink:href="#SVGID_1_"  style="overflow:visible;fill:#FFFFFF;"/>
	<clipPath id="SVGID_2_">
		<use xlink:href="#SVGID_1_"  style="overflow:visible;"/>
	</clipPath>
	<rect x="2.9" y="-191.4" class="st0" width="198.9" height="113.2"/>
</g>
<g>
	<defs>
		<path id="SVGID_3_" d="M0,5.3c0-2.8,2.2-5,5-5h212c2.8,0,5,2.2,5,5v28c0,2.8-2.2,5-5,5H5c-2.8,0-5-2.2-5-5V5.3z"/>
	</defs>
	<clipPath id="SVGID_4_">
		<use xlink:href="#SVGID_3_"  style="overflow:visible;"/>
	</clipPath>
	<g class="st1">
		<g>
			<defs>
				<rect id="SVGID_5_" x="0" y="0.3" width="222" height="38"/>
			</defs>
			<clipPath id="SVGID_6_">
				<use xlink:href="#SVGID_5_"  style="overflow:visible;"/>
			</clipPath>
			<g class="st2">
				<defs>
					<rect id="SVGID_7_" x="0" y="0.3" width="222" height="38"/>
				</defs>
				<clipPath id="SVGID_8_">
					<use xlink:href="#SVGID_7_"  style="overflow:visible;"/>
				</clipPath>
				<rect x="-5" y="-4.7" class="st3" width="232" height="48"/>
			</g>
			<g class="st2">
				<defs>
					<path id="SVGID_9_" d="M0,5.3c0-2.8,2.2-5,5-5h212c2.8,0,5,2.2,5,5v28c0,2.8-2.2,5-5,5H5c-2.8,0-5-2.2-5-5V5.3z M-11-10.7h244
						v60H-11V-10.7z"/>
				</defs>
				<clipPath id="SVGID_10_">
					<use xlink:href="#SVGID_9_"  style="overflow:visible;"/>
				</clipPath>
				<g class="st4">
					<defs>
						<rect id="SVGID_11_" x="0" y="0.3" width="222" height="38"/>
					</defs>
					<clipPath id="SVGID_12_">
						<use xlink:href="#SVGID_11_"  style="overflow:visible;"/>
					</clipPath>
					<path class="st5" d="M0,5.3c0-2.8,2.2-5,5-5h212c2.8,0,5,2.2,5,5v28c0,2.8-2.2,5-5,5H5c-2.8,0-5-2.2-5-5V5.3z"/>
				</g>
			</g>
			<g class="st2">
				<defs>
					<rect id="SVGID_13_" x="0" y="0.3" width="222" height="38"/>
				</defs>
				<clipPath id="SVGID_14_">
					<use xlink:href="#SVGID_13_"  style="overflow:visible;"/>
				</clipPath>
				<g class="st6">
					<path class="st7" d="M156.5,22L156.5,22c-0.4,0.5-0.8,0.8-1.3,1.1c-0.5,0.2-1.1,0.4-1.8,0.4s-1.4-0.1-1.9-0.4
						c-0.6-0.2-1.1-0.6-1.5-1c-0.4-0.4-0.7-1-1-1.6s-0.3-1.3-0.3-2c0-0.7,0.1-1.4,0.3-2s0.6-1.1,1-1.6s0.9-0.8,1.5-1s1.3-0.4,2-0.4
						c0.6,0,1.1,0.1,1.6,0.2c0.5,0.2,0.9,0.4,1.3,0.7c0.4,0.3,0.7,0.6,0.9,1s0.4,0.8,0.5,1.2h-1.6c-0.1-0.2-0.2-0.5-0.3-0.7
						c-0.1-0.2-0.3-0.4-0.5-0.5c-0.2-0.2-0.5-0.3-0.8-0.4c-0.3-0.1-0.6-0.1-1-0.1c-0.5,0-0.9,0.1-1.3,0.3c-0.4,0.2-0.7,0.4-1,0.7
						s-0.5,0.7-0.6,1.1c-0.1,0.4-0.2,0.9-0.2,1.4c0,0.5,0.1,1,0.2,1.4s0.4,0.8,0.7,1.1c0.3,0.3,0.6,0.6,1,0.7
						c0.4,0.2,0.8,0.3,1.3,0.3c0.4,0,0.7-0.1,1.1-0.2s0.7-0.3,0.9-0.5c0.3-0.2,0.5-0.5,0.6-0.8c0.2-0.3,0.2-0.6,0.2-1v-0.2h-2.8
						v-1.3h4.2v5.2h-1L156.5,22z"/>
					<path class="st7" d="M159.3,19.8c0-0.6,0.1-1,0.3-1.5s0.4-0.8,0.7-1.1c0.3-0.3,0.7-0.5,1.1-0.7s0.9-0.3,1.4-0.3
						c0.5,0,1,0.1,1.4,0.2s0.8,0.4,1.1,0.7c0.3,0.3,0.5,0.7,0.7,1.1s0.2,0.9,0.2,1.5c0,0.6-0.1,1-0.3,1.5s-0.4,0.8-0.7,1.1
						c-0.3,0.3-0.7,0.5-1.1,0.7s-0.9,0.3-1.4,0.3c-0.5,0-1-0.1-1.4-0.2c-0.4-0.2-0.8-0.4-1.1-0.7c-0.3-0.3-0.5-0.7-0.7-1.1
						C159.4,20.9,159.3,20.4,159.3,19.8z M160.9,19.8c0,0.7,0.2,1.3,0.5,1.7c0.3,0.4,0.8,0.6,1.4,0.6c0.6,0,1-0.2,1.4-0.6
						c0.3-0.4,0.5-1,0.5-1.7c0-0.7-0.2-1.3-0.5-1.7c-0.3-0.4-0.8-0.6-1.4-0.6c-0.6,0-1,0.2-1.4,0.6
						C161.1,18.6,160.9,19.1,160.9,19.8z"/>
					<path class="st7" d="M168.1,17.6h-1.3v-1.2h1.3v-2.1h1.5v2.1h1.8v1.2h-1.8v3.5c0,0.3,0.1,0.6,0.2,0.7c0.1,0.1,0.4,0.2,0.7,0.2
						h0.8v1.3h-1c-0.8,0-1.4-0.2-1.7-0.5c-0.4-0.3-0.5-0.9-0.5-1.6V17.6z"/>
					<path class="st7" d="M175.9,13.6h3.9c0.6,0,1.1,0.1,1.5,0.2c0.4,0.2,0.8,0.4,1.1,0.6s0.5,0.6,0.7,1c0.2,0.4,0.2,0.8,0.2,1.3
						c0,0.5-0.1,0.9-0.2,1.3c-0.2,0.4-0.4,0.7-0.7,1c-0.3,0.3-0.7,0.5-1.1,0.7s-0.9,0.2-1.5,0.2h-2.3v3.3h-1.6V13.6z M177.5,14.9
						v3.8h2.3c0.3,0,0.6,0,0.9-0.1s0.5-0.2,0.6-0.4c0.2-0.2,0.3-0.4,0.4-0.6c0.1-0.2,0.1-0.5,0.1-0.7c0-0.5-0.2-1-0.5-1.3
						s-0.8-0.5-1.5-0.5H177.5z"/>
					<path class="st7" d="M185,13h1.5v10.2H185V13z"/>
					<path class="st7" d="M188.4,16.4h1.5v3.9c0,0.7,0.1,1.2,0.4,1.4c0.3,0.3,0.6,0.4,1.1,0.4c0.5,0,0.9-0.2,1.2-0.6
						c0.3-0.4,0.5-0.9,0.5-1.7v-3.5h1.5v6.8h-1.4v-1h-0.1c-0.4,0.8-1.1,1.2-2.1,1.2c-0.3,0-0.7,0-1-0.1c-0.3-0.1-0.6-0.3-0.8-0.5
						c-0.2-0.2-0.4-0.5-0.6-0.9c-0.1-0.4-0.2-0.8-0.2-1.3V16.4z"/>
					<path class="st7" d="M197.6,21.2c0,0.2,0,0.4,0.1,0.5c0.1,0.1,0.2,0.3,0.3,0.4c0.1,0.1,0.3,0.2,0.5,0.2c0.2,0,0.4,0.1,0.6,0.1
						c0.5,0,0.9-0.1,1.1-0.3s0.3-0.4,0.3-0.8c0-0.3-0.1-0.4-0.2-0.6s-0.4-0.2-0.7-0.3l-1.3-0.2c-0.3,0-0.5-0.1-0.7-0.2
						c-0.2-0.1-0.5-0.2-0.6-0.3s-0.3-0.3-0.5-0.5c-0.1-0.2-0.2-0.5-0.2-0.8c0-0.3,0.1-0.7,0.2-0.9c0.1-0.3,0.3-0.5,0.6-0.7
						c0.3-0.2,0.5-0.3,0.9-0.4c0.3-0.1,0.7-0.1,1.1-0.1c0.4,0,0.8,0,1.1,0.1c0.3,0.1,0.6,0.2,0.9,0.4c0.3,0.2,0.4,0.4,0.6,0.7
						c0.1,0.3,0.2,0.6,0.2,1h-1.4c0-0.4-0.1-0.6-0.4-0.8c-0.3-0.2-0.6-0.3-1-0.3c-0.4,0-0.7,0.1-1,0.3s-0.4,0.4-0.4,0.7
						c0,0.2,0.1,0.4,0.2,0.5c0.2,0.1,0.4,0.2,0.9,0.3l1.3,0.2c0.3,0,0.5,0.1,0.7,0.2s0.4,0.2,0.6,0.3c0.2,0.1,0.3,0.3,0.4,0.6
						s0.2,0.5,0.2,0.8c0,0.4-0.1,0.7-0.2,1c-0.1,0.3-0.3,0.5-0.6,0.7c-0.3,0.2-0.6,0.3-0.9,0.4c-0.4,0.1-0.8,0.1-1.2,0.1
						c-0.9,0-1.6-0.2-2.1-0.6c-0.5-0.4-0.8-0.9-0.8-1.7H197.6z"/>
					<path class="st7" d="M205.4,20.1c0-0.3,0-0.6,0.1-0.8s0.2-0.5,0.3-0.7c0.1-0.2,0.2-0.3,0.4-0.5c0.1-0.1,0.3-0.3,0.5-0.4
						l0.3-0.3c0.2-0.2,0.4-0.4,0.6-0.6c0.2-0.2,0.3-0.5,0.3-0.8c0-0.4-0.1-0.7-0.4-1c-0.3-0.3-0.6-0.4-1.1-0.4c-0.3,0-0.6,0-0.8,0.1
						c-0.2,0.1-0.4,0.2-0.5,0.4c-0.1,0.2-0.2,0.4-0.3,0.6c-0.1,0.2-0.1,0.5-0.1,0.7h-1.5c0-0.4,0.1-0.8,0.2-1.1
						c0.1-0.4,0.3-0.7,0.6-1c0.3-0.3,0.6-0.5,1-0.7c0.4-0.2,0.9-0.3,1.4-0.3c0.4,0,0.9,0.1,1.2,0.2c0.4,0.1,0.7,0.3,1,0.5
						c0.3,0.2,0.5,0.5,0.6,0.8s0.2,0.7,0.2,1.1c0,0.3,0,0.5-0.1,0.7c-0.1,0.2-0.2,0.4-0.3,0.6c-0.1,0.2-0.2,0.3-0.4,0.5
						c-0.1,0.1-0.3,0.3-0.4,0.4l-0.3,0.3c-0.3,0.2-0.5,0.4-0.7,0.6c-0.2,0.2-0.3,0.5-0.3,0.9v0.5h-1.5V20.1z M205.3,21.6h1.7v1.7
						h-1.7V21.6z"/>
				</g>
				<line class="st8" x1="134.5" y1="0.3" x2="134.5" y2="38.3"/>
				<g class="st6">
					<g>
						<path class="st7" d="M12.2,13.6h1.6v4.1h4.8v-4.1h1.6v9.6h-1.6v-4.2h-4.8v4.2h-1.6V13.6z"/>
						<path class="st7" d="M21.9,19.9c0-0.5,0.1-1,0.3-1.5s0.4-0.8,0.7-1.1c0.3-0.3,0.7-0.6,1.1-0.7c0.4-0.2,0.9-0.3,1.4-0.3
							c0.5,0,0.9,0.1,1.3,0.2c0.4,0.1,0.7,0.4,1,0.7c0.3,0.3,0.5,0.6,0.7,1c0.2,0.4,0.2,0.9,0.2,1.4v0.5h-5c0,0.7,0.2,1.2,0.6,1.6
							s0.8,0.6,1.3,0.6c0.5,0,0.9-0.1,1.1-0.3c0.3-0.2,0.4-0.5,0.5-0.7h1.5c0,0.3-0.1,0.6-0.3,0.9c-0.2,0.3-0.4,0.5-0.6,0.7
							c-0.3,0.2-0.6,0.4-0.9,0.5s-0.8,0.2-1.2,0.2c-1.1,0-1.9-0.3-2.5-0.9C22.2,21.9,21.9,21,21.9,19.9z M25.3,17.5
							c-0.4,0-0.8,0.1-1.1,0.4s-0.5,0.7-0.6,1.2H27c-0.1-0.6-0.2-1-0.5-1.2C26.2,17.6,25.8,17.5,25.3,17.5z"/>
						<path class="st7" d="M30,13h1.5v10.2H30V13z"/>
						<path class="st7" d="M35.1,26.3h-1.5v-9.9h1.5v1h0.1c0.2-0.4,0.5-0.7,0.9-0.9s0.8-0.3,1.4-0.3c0.4,0,0.8,0.1,1.2,0.2
							c0.4,0.2,0.7,0.4,1,0.7c0.3,0.3,0.5,0.7,0.6,1.1c0.2,0.4,0.2,0.9,0.2,1.5s-0.1,1.1-0.2,1.5c-0.2,0.4-0.4,0.8-0.7,1.1
							c-0.3,0.3-0.6,0.6-1,0.7s-0.8,0.3-1.2,0.3c-0.5,0-0.9-0.1-1.3-0.3s-0.7-0.5-0.9-0.9h-0.1c0,0.4,0,0.9,0,1.3s0,0.8,0,1V26.3z
							 M38.9,19.8c0-0.8-0.2-1.3-0.5-1.7c-0.3-0.4-0.8-0.6-1.3-0.6c-0.3,0-0.5,0.1-0.7,0.2c-0.2,0.1-0.4,0.2-0.6,0.4
							c-0.2,0.2-0.3,0.4-0.4,0.7c-0.1,0.3-0.2,0.6-0.2,1v0.1c0,0.4,0,0.7,0.1,1c0.1,0.3,0.2,0.5,0.4,0.7c0.2,0.2,0.4,0.4,0.6,0.5
							s0.5,0.2,0.7,0.2c0.5,0,1-0.2,1.3-0.6C38.7,21.1,38.9,20.5,38.9,19.8z"/>
					</g>
				</g>
				<g class="st6">
					<g>
						<path class="st7" d="M69.8,13.6h1.9l3.6,9.6h-1.7l-0.8-2.3h-4.1l-0.8,2.3h-1.6L69.8,13.6z M70.6,15.2l-1.6,4.4h3.2L70.6,15.2
							L70.6,15.2z"/>
						<path class="st7" d="M76.4,13h1.5v2.1c0,0.2,0,0.6,0,1s0,0.9,0,1.3h0.1c0.2-0.4,0.5-0.7,0.9-0.9c0.4-0.2,0.8-0.3,1.4-0.3
							c0.4,0,0.8,0.1,1.2,0.2c0.4,0.2,0.7,0.4,1,0.7s0.5,0.7,0.6,1.1c0.2,0.4,0.2,0.9,0.2,1.5s-0.1,1.1-0.2,1.5
							c-0.2,0.4-0.4,0.8-0.7,1.1s-0.6,0.6-1,0.7s-0.8,0.3-1.2,0.3c-0.5,0-0.9-0.1-1.3-0.3c-0.4-0.2-0.7-0.5-0.9-0.9h-0.1v1h-1.5V13z
							 M77.9,19.8c0,0.4,0,0.7,0.1,1c0.1,0.3,0.2,0.5,0.4,0.7c0.2,0.2,0.4,0.4,0.6,0.5c0.2,0.1,0.5,0.2,0.7,0.2c0.5,0,1-0.2,1.3-0.6
							c0.3-0.4,0.5-1,0.5-1.8s-0.2-1.3-0.5-1.7c-0.4-0.4-0.8-0.6-1.3-0.6c-0.3,0-0.5,0.1-0.7,0.2s-0.4,0.2-0.6,0.4s-0.3,0.4-0.4,0.7
							c-0.1,0.3-0.2,0.6-0.2,1V19.8z"/>
						<path class="st7" d="M84.3,19.8c0-0.6,0.1-1,0.3-1.5c0.2-0.4,0.4-0.8,0.7-1.1c0.3-0.3,0.7-0.5,1.1-0.7
							c0.4-0.2,0.9-0.3,1.4-0.3c0.5,0,1,0.1,1.4,0.2c0.4,0.2,0.8,0.4,1.1,0.7c0.3,0.3,0.5,0.7,0.7,1.1c0.2,0.4,0.2,0.9,0.2,1.5
							c0,0.6-0.1,1-0.3,1.5c-0.2,0.4-0.4,0.8-0.7,1.1c-0.3,0.3-0.7,0.5-1.1,0.7c-0.4,0.2-0.9,0.3-1.4,0.3c-0.5,0-1-0.1-1.4-0.2
							c-0.4-0.2-0.8-0.4-1.1-0.7c-0.3-0.3-0.5-0.7-0.7-1.1S84.3,20.4,84.3,19.8z M85.9,19.8c0,0.7,0.2,1.3,0.5,1.7
							c0.3,0.4,0.8,0.6,1.4,0.6c0.6,0,1-0.2,1.4-0.6c0.4-0.4,0.5-1,0.5-1.7c0-0.7-0.2-1.3-0.5-1.7c-0.3-0.4-0.8-0.6-1.4-0.6
							c-0.6,0-1,0.2-1.4,0.6C86,18.6,85.9,19.1,85.9,19.8z"/>
						<path class="st7" d="M92.7,16.4h1.5v3.9c0,0.7,0.1,1.2,0.4,1.4c0.3,0.3,0.6,0.4,1.1,0.4c0.5,0,0.9-0.2,1.2-0.6
							c0.3-0.4,0.5-0.9,0.5-1.7v-3.5h1.5v6.8h-1.4v-1h-0.1c-0.4,0.8-1.1,1.2-2.1,1.2c-0.3,0-0.7,0-1-0.1c-0.3-0.1-0.6-0.3-0.8-0.5
							c-0.2-0.2-0.4-0.5-0.6-0.9c-0.1-0.4-0.2-0.8-0.2-1.3V16.4z"/>
						<path class="st7" d="M101.1,17.6h-1.3v-1.2h1.3v-2.1h1.5v2.1h1.8v1.2h-1.8v3.5c0,0.3,0.1,0.6,0.2,0.7c0.1,0.1,0.4,0.2,0.7,0.2
							h0.8v1.3h-1c-0.8,0-1.4-0.2-1.7-0.5c-0.4-0.3-0.5-0.9-0.5-1.6V17.6z"/>
						<path class="st7" d="M108.7,16.4h1.5v3.9c0,0.7,0.1,1.2,0.4,1.4s0.6,0.4,1.1,0.4c0.5,0,0.9-0.2,1.2-0.6
							c0.3-0.4,0.5-0.9,0.5-1.7v-3.5h1.5v6.8h-1.4v-1h-0.1c-0.4,0.8-1.1,1.2-2.1,1.2c-0.3,0-0.7,0-1-0.1c-0.3-0.1-0.6-0.3-0.8-0.5
							c-0.2-0.2-0.4-0.5-0.6-0.9c-0.1-0.4-0.2-0.8-0.2-1.3V16.4z"/>
						<path class="st7" d="M117.9,21.2c0,0.2,0,0.4,0.1,0.5c0.1,0.1,0.2,0.3,0.3,0.4c0.1,0.1,0.3,0.2,0.5,0.2c0.2,0,0.4,0.1,0.6,0.1
							c0.5,0,0.9-0.1,1.1-0.3s0.3-0.4,0.3-0.8c0-0.3-0.1-0.4-0.2-0.6s-0.4-0.2-0.7-0.3l-1.3-0.2c-0.3,0-0.5-0.1-0.7-0.2
							c-0.2-0.1-0.5-0.2-0.6-0.3s-0.3-0.3-0.5-0.5c-0.1-0.2-0.2-0.5-0.2-0.8c0-0.3,0.1-0.7,0.2-0.9c0.1-0.3,0.3-0.5,0.6-0.7
							c0.3-0.2,0.5-0.3,0.9-0.4c0.3-0.1,0.7-0.1,1.1-0.1c0.4,0,0.8,0,1.1,0.1c0.3,0.1,0.6,0.2,0.9,0.4c0.3,0.2,0.4,0.4,0.6,0.7
							c0.1,0.3,0.2,0.6,0.2,1h-1.4c0-0.4-0.1-0.6-0.4-0.8c-0.3-0.2-0.6-0.3-1-0.3c-0.4,0-0.7,0.1-1,0.3S118,18,118,18.3
							c0,0.2,0.1,0.4,0.2,0.5c0.2,0.1,0.4,0.2,0.9,0.3l1.3,0.2c0.3,0,0.5,0.1,0.7,0.2s0.4,0.2,0.6,0.3c0.2,0.1,0.3,0.3,0.4,0.6
							s0.2,0.5,0.2,0.8c0,0.4-0.1,0.7-0.2,1c-0.1,0.3-0.3,0.5-0.6,0.7c-0.3,0.2-0.6,0.3-0.9,0.4c-0.4,0.1-0.8,0.1-1.2,0.1
							c-0.9,0-1.6-0.2-2.1-0.6c-0.5-0.4-0.8-0.9-0.8-1.7H117.9z"/>
					</g>
				</g>
				<line class="st8" x1="52.5" y1="0.3" x2="52.5" y2="38.3"/>
			</g>
		</g>
	</g>
</g>
</svg>
